<?xml version="1.0" standalone="no"?>
<!DOCTYPE svg PUBLIC "-//W3C//DTD SVG 1.1//EN" "http://www.w3.org/Graphics/SVG/1.1/DTD/svg11.dtd" >
<svg xmlns="http://www.w3.org/2000/svg" xmlns:xlink="http://www.w3.org/1999/xlink" version="1.1">
<metadata>
Created by FontForge 20161013 at Fri Jan  1 02:30:17 1904
 By ,,,
www.anke-art.de
</metadata>
<defs>
<font id="CAR-GO2" horiz-adv-x="1400" >
  <font-face 
    font-family="CAR-GO"
    font-weight="400"
    font-stretch="normal"
    units-per-em="2048"
    panose-1="0 0 0 0 0 0 0 0 0 0"
    ascent="1638"
    descent="-410"
    x-height="2447"
    cap-height="1952"
    bbox="-23 -533.982 1423 2448.71"
    underline-thickness="0"
    underline-position="0"
    unicode-range="U+0021-00FC"
  />
<missing-glyph horiz-adv-x="0" 
 />
    <glyph glyph-name=".notdef" horiz-adv-x="0" 
 />
    <glyph glyph-name="glyph1" horiz-adv-x="0" 
 />
    <glyph glyph-name="nonmarkingreturn" horiz-adv-x="682" 
 />
    <glyph glyph-name="exclam" unicode="!" horiz-adv-x="696" 
d="M136 472l-32 1310q-36 158 108 164l292 2q124 -16 92 -152l-68 -1320q-4 -120 -64 -114h-254q-66 12 -74 110zM118 76v168q40 56 100 56h254q58 -28 76 -72l2 -148q-8 -56 -60 -80h-304q-64 24 -68 76z" />
    <glyph glyph-name="quotedbl" unicode="&#x22;" 
d="M-15 2320v127h1437v-239h-1437v112zM-23 -416v127h1446v-239h-1446v112zM149 1467l-3 307q36 145 200 182h188h392q266 -13 312 -455q8 -250 -208 -490l-556 -636q16 -33 72 -29h664q44 -8 52 -67v-228q-8 -57 -156 -53h-968q-64 37 -64 92v281q0 54 28 100l708 788
q80 117 74 191.5t-22 107.5t-58 56.5t-162 27.5t-150 -15t-34 -89v-117q8 -54 -64 -62h-188q-47 29 -57 108z" />
    <glyph glyph-name="quotedbl" 
d="M-15 2320v127h1437v-239h-1437v112zM-23 -416v127h1446v-239h-1446v112zM149 1467l-3 307q36 145 200 182h188h392q266 -13 312 -455q8 -250 -208 -490l-556 -636q16 -33 72 -29h664q44 -8 52 -67v-228q-8 -57 -156 -53h-968q-64 37 -64 92v281q0 54 28 100l708 788
q80 117 74 191.5t-22 107.5t-58 56.5t-162 27.5t-150 -15t-34 -89v-117q8 -54 -64 -62h-188q-47 29 -57 108z" />
    <glyph glyph-name="quotedbl" 
d="M-15 2320v127h1437v-239h-1437v112zM-23 -416v127h1446v-239h-1446v112zM149 1467l-3 307q36 145 200 182h188h392q266 -13 312 -455q8 -250 -208 -490l-556 -636q16 -33 72 -29h664q44 -8 52 -67v-228q-8 -57 -156 -53h-968q-64 37 -64 92v281q0 54 28 100l708 788
q80 117 74 191.5t-22 107.5t-58 56.5t-162 27.5t-150 -15t-34 -89v-117q8 -54 -64 -62h-188q-47 29 -57 108z" />
    <glyph glyph-name="quotedbl" 
d="M-15 2320v127h1437v-239h-1437v112zM-23 -416v127h1446v-239h-1446v112zM149 1467l-3 307q36 145 200 182h188h392q266 -13 312 -455q8 -250 -208 -490l-556 -636q16 -33 72 -29h664q44 -8 52 -67v-228q-8 -57 -156 -53h-968q-64 37 -64 92v281q0 54 28 100l708 788
q80 117 74 191.5t-22 107.5t-58 56.5t-162 27.5t-150 -15t-34 -89v-117q8 -54 -64 -62h-188q-47 29 -57 108z" />
    <glyph glyph-name="quotedbl" unicode="\" 
d="M-15 2320v127h1437v-239h-1437v112zM-23 -416v127h1446v-239h-1446v112zM149 1467l-3 307q36 145 200 182h188h392q266 -13 312 -455q8 -250 -208 -490l-556 -636q16 -33 72 -29h664q44 -8 52 -67v-228q-8 -57 -156 -53h-968q-64 37 -64 92v281q0 54 28 100l708 788
q80 117 74 191.5t-22 107.5t-58 56.5t-162 27.5t-150 -15t-34 -89v-117q8 -54 -64 -62h-188q-47 29 -57 108z" />
    <glyph glyph-name="numbersign" unicode="#" horiz-adv-x="708" 
d="M-15 2320v127h732v-239h-732v112zM-23 -416v127h733v-239h-733v112zM136 502l-32 1284q-36 155 108 161l292 1q124 -15 92 -148l-68 -1294q-4 -118 -64 -112h-254q-66 12 -74 108zM126 72v168q18 44 100 56h264q48 -28 68 -80v-140q-8 -56 -60 -80h-304q-64 24 -68 76z
" />
    <glyph glyph-name="dollar" unicode="$" 
d="M-15 2320v127h1437v-239h-1437v112zM-23 -416v127h1446v-239h-1446v112zM753 1951l231 1q72 0 32 -44l-588 -1095q-60 -112 32 -100h244q44 17 52 75v251q4 45 48 45h196q44 0 48 -49v-260q-4 -53 44 -62h76q40 0 32 -69v-252q0 -45 -44 -41h-68q-60 4 -40 -82v-210
q-4 -38 -60 -57h-200q-36 15 -32 73v210q-12 78 -60 74h-524q-60 0 -88 54v354q0 74 28 119l556 1005q29 51 85 60z" />
    <glyph glyph-name="percent" unicode="%" 
d="M-15 2320v127h1437v-239h-1437v112zM-23 -416v127h1446v-239h-1446v112zM402 1952h736q44 -15 64 -63v-148q8 -75 -48 -99h-680q-76 -4 -76 -56v-303q-4 -127 38 -75.5t78 77.5t90 40t154 16t186 -44t122 -81.5t76 -97.5t50 -143.5t14 -251t-28 -325.5t-76 -219t-84 -93
t-78 -52t-225 -34h-344q-149 48 -211 118t-66 261v151q-4 48 40 44h208q56 -16 52 -80q-3 -179 87 -207t179.5 -18t154.5 74.5t82 181.5t13 210.5t-21 165t-62 119.5t-116.5 68t-133.5 -8t-104.5 -83.5t-114.5 -71.5h-240q-44 32 -24 131v841q16 55 72 55h236z" />
    <glyph glyph-name="ampersand" unicode="&#x26;" 
d="M-15 2320v127h1437v-239h-1437v112zM-23 -416v127h1446v-239h-1446v112zM592 1899q20 53 64 50l220 -4q56 -33 36 -100l-320 -531q-80 -117 60 -50q100 25 170 18.5t130 -27t116 -75t88 -114.5t44 -132.5t16 -170.5t-12 -225t-34.5 -179.5t-60 -110t-67.5 -92.5
t-84 -74.5t-144 -60.5t-186 -21t-162 10.5t-92 23t-64 33.5t-66 46t-62 91.5t-46 141.5t-26 201.5t-2 257.5t16 178.5t34 130.5t50 137t62 127t322 521zM440 796q-28 -92 -18 -210t54 -178t106 -74t122 4t92 42t54 66t40 108t10 144t-40 144t-92 100t-132 14t-112 -54
t-84 -106z" />
    <glyph glyph-name="quotesingle" unicode="'" horiz-adv-x="712" 
d="M-15 2320v127h729v-239h-729v112zM-23 -416v127h746v-239h-746v112zM126 76v168q40 56 100 56h264q48 -28 68 -80q10 -364 -126 -452q-60 -72 -124 -32l-56 32q-44 40 8 80q72 68 74 112t-54 36h-104q-46 28 -50 80z" />
    <glyph glyph-name="quotesingle" unicode="&#xb3;" horiz-adv-x="712" 
d="M-15 2320v127h729v-239h-729v112zM-23 -416v127h746v-239h-746v112zM126 76v168q40 56 100 56h264q48 -28 68 -80q10 -364 -126 -452q-60 -72 -124 -32l-56 32q-44 40 8 80q72 68 74 112t-54 36h-104q-46 28 -50 80z" />
    <glyph glyph-name="parenleft" unicode="(" horiz-adv-x="840" 
d="M48 40l6 1812q-78 586 330 595h456v-239l-440 3q-128 4 -104 -345v-1826q-16 -342 104 -334l440 6v-240l-472 -5q-384 -18 -320 573z" />
    <glyph glyph-name="parenright" unicode=")" horiz-adv-x="708" 
d="M-23 -416v127q299 -27 307 113v2292q-28 116 -299 92v112v127q543 25 547 -315v-2312q-16 -400 -555 -348v112z" />
    <glyph glyph-name="parenright" unicode="&#xdf;" horiz-adv-x="708" 
d="M-23 -416v127q299 -27 307 113v2292q-28 116 -299 92v112v127q543 25 547 -315v-2312q-16 -400 -555 -348v112z" />
    <glyph glyph-name="asterisk" unicode="*" horiz-adv-x="1104" 
d="M-15 2320v127h1124v-239h-1124v112zM-23 -416v127h1129v-239h-1129v112zM104 692v204q16 48 76 48h180q68 -8 54 60l-2 156q-7 60 52 68h184q56 0 52 -64v-164q-8 -60 56 -56h164q64 -4 68 -56v-176q4 -64 -56 -68h-172q-64 4 -56 -52l3 -188q-7 -52 -51 -68h-192
q-48 16 -36 64v176q12 68 -55 64h-201q-64 -4 -68 52z" />
    <glyph glyph-name="plus" unicode="+" horiz-adv-x="1096" 
d="M104 692v204q16 48 76 48h180q68 -8 54 60l-2 156q-7 60 52 68h184q56 0 52 -64v-164q-8 -60 56 -56h164q64 -4 68 -56v-176q4 -64 -56 -68h-172q-64 4 -56 -52l3 -188q-7 -52 -51 -68h-192q-48 16 -36 64v176q12 68 -55 64h-201q-64 -4 -68 52z" />
    <glyph glyph-name="comma" unicode="," horiz-adv-x="832" 
d="M118 80v168q40 56 100 56h264q48 -28 68 -80q2 -424 -226 -580q-48 -36 -92 0l-46 57q-30 47 26 83q84 76 100 150t-40 66h-104q-46 28 -50 80z" />
    <glyph glyph-name="hyphen" unicode="-" horiz-adv-x="768" 
d="M34 808v168q34 68 162 56h427q101 -12 111 -80v-140q-10 -80 -98 -80h-492q-88 8 -110 76z" />
    <glyph glyph-name="period" unicode="." horiz-adv-x="540" 
d="M54 76v168q40 56 100 56h264q48 -28 68 -80v-140q-8 -56 -60 -80h-304q-64 24 -68 76z" />
    <glyph glyph-name="slash" unicode="/" 
d="M-15 2320v127h1437v-239h-1437v112zM-23 -416v127h1446v-239h-1446v112zM216 1952h940q47 -35 56 -103v-394q-12 -68 -60 -137l-444 -758q-24 -47 -20 -149v-337q0 -64 -60 -76h-268q-52 8 -52 64v455q4 69 36 141l496 852q32 120 -56 107h-292q-76 4 -64 -72v-141
q-8 -73 -88 -81h-208q-56 21 -44 98v464q20 60 128 67z" />
    <glyph glyph-name="zero" unicode="0" horiz-adv-x="1244" 
d="M218 1948h692q145 -6 172 -104q16 -118 -28 -164l-178 -190q-70 -37 -66 42v93q-16 46 -84 46h-256q-68 -8 -56 -84v-1144q-4 -71 182 -69t182 74l-2 800q4 48 52 76l156 168l120 140q50 6 46 -104v-1177q-24 -215 -100 -276.5t-216 -78.5h-344h-204q-96 17 -150 78.5
t-50 250.5v1325q-12 278 132 298z" />
    <glyph glyph-name="one" unicode="1" horiz-adv-x="1316" 
d="M140 324h381q64 -4 72 58v1005q-8 66 -40 8l-76 -87q-32 -58 -100 -54h-160q-56 13 -48 87v245q32 41 120 33q52 4 80 46l152 218q36 46 66 50t58 7.5t244 -2.5q52 -1 52 -71v-1485q0 -62 44 -58h179q72 8 72 -68v-184q0 -80 -92 -72h-1004q-76 -4 -72 72v192q8 64 72 60
z" />
    <glyph glyph-name="two" unicode="2" horiz-adv-x="1336" 
d="M149 1467l-3 307q36 145 200 182h188h392q266 -13 312 -455q8 -250 -208 -490l-556 -636q16 -33 72 -29h664q44 -8 52 -67v-228q-8 -57 -156 -53h-968q-64 37 -64 92v281q0 54 28 100l708 788q80 117 74 191.5t-22 107.5t-58 56.5t-162 27.5t-150 -15t-34 -89v-117
q8 -54 -64 -62h-188q-47 29 -57 108z" />
    <glyph glyph-name="three" unicode="3" horiz-adv-x="1360" 
d="M159 641h180q68 3 68 -53v-143q52 -222 360 -152q144 74 176 168t32 186t-26 150t-86 95t-248 29q-144 -17 -180 45l-4 147q12 45 84 99l364 372q24 62 -44 58h-604q-48 12 -64 81v178q-8 49 56 51h900q76 0 96 -55v-354q-8 -62 -48 -89l-204 -210q-108 -98 -20 -94
q144 -41 240 -140q94 -144 84 -250v-230q-16 -143 -42 -204.5t-50 -104.5t-82 -98.5t-286 -124.5l-383 2q-180 40 -250.5 135.5t-90.5 264.5v167q-8 78 72 74z" />
    <glyph glyph-name="four" unicode="4" horiz-adv-x="1292" 
d="M753 1951l231 1q72 0 32 -44l-588 -1095q-60 -112 32 -100h244q44 17 52 75v251q4 45 48 45h196q44 0 48 -49v-260q-4 -53 44 -62h76q40 0 32 -69v-252q0 -45 -44 -41h-68q-60 4 -40 -82v-210q-4 -38 -60 -57h-200q-36 15 -32 73v210q-12 78 -60 74h-524q-60 0 -88 54
v354q0 74 28 119l556 1005q29 51 85 60z" />
    <glyph glyph-name="five" unicode="5" horiz-adv-x="1284" 
d="M402 1952h736q44 -15 64 -63v-148q8 -75 -48 -99h-680q-76 -4 -76 -56v-303q-4 -127 38 -75.5t78 77.5t90 40t154 16t186 -44t122 -81.5t76 -97.5t50 -143.5t14 -251t-28 -325.5t-76 -219t-84 -93t-78 -52t-225 -34h-344q-149 48 -211 118t-66 261v151q-4 48 40 44h208
q56 -16 52 -80q-3 -179 87 -207t179.5 -18t154.5 74.5t82 181.5t13 210.5t-21 165t-62 119.5t-116.5 68t-133.5 -8t-104.5 -83.5t-114.5 -71.5h-240q-44 32 -24 131v841q16 55 72 55h236z" />
    <glyph glyph-name="six" unicode="6" horiz-adv-x="1320" 
d="M440 796q-28 -92 -18 -210t54 -178t106 -74t122 4t92 42t54 66t40 108t10 144t-40 144t-92 100t-132 14t-112 -54t-84 -106zM592 1899q20 53 64 50l220 -4q56 -33 36 -100l-320 -531q-80 -117 60 -50q100 25 170 18.5t130 -27t116 -75t88 -114.5t44 -132.5t16 -170.5
t-12 -225t-34.5 -179.5t-60 -110t-67.5 -92.5t-84 -74.5t-144 -60.5t-186 -21t-162 10.5t-92 23t-64 33.5t-66 46t-62 91.5t-46 141.5t-26 201.5t-2 257.5t16 178.5t34 130.5t50 137t62 127t322 521z" />
    <glyph glyph-name="seven" unicode="7" horiz-adv-x="1288" 
d="M216 1952h940q47 -35 56 -103v-394q-12 -68 -60 -137l-444 -758q-24 -47 -20 -149v-337q0 -64 -60 -76h-268q-52 8 -52 64v455q4 69 36 141l496 852q32 120 -56 107h-292q-76 4 -64 -72v-141q-8 -73 -88 -81h-208q-56 21 -44 98v464q20 60 128 67z" />
    <glyph glyph-name="eight" unicode="8" horiz-adv-x="1216" 
d="M395 588q8 -69 28 -123t56 -88.5t80 -47t88 -4t78 45t52 88t24 129t0 118.5t-28 101t-62 96.5t-102 36.5t-106 -45t-64 -96.5t-30 -90.5t-14 -120zM611 1956q160 -8 238 -39t136 -103.5t80.5 -201t4.5 -246.5t-127 -230q-60 -29 32 -87q136 -129 158.5 -319t-9 -320
t-71.5 -190t-80.5 -97t-85 -65t-96.5 -44.5t-188 -16.5t-192 16.5t-94 39t-66 51.5t-86 106t-82 222t4 306.5t148 314.5q80 37 8 91q-92 108 -116 222t4 240.5t88 203t138 107.5t254 39zM407 1461q7 -49 26 -86.5t47 -60t74 -24.5t92 0t72 24t47.5 57t23.5 81.5t-4 83
t-25 69t-55 52t-99 18.5t-101 -19.5t-57 -50t-28.5 -59.5t-12.5 -85z" />
    <glyph glyph-name="nine" unicode="9" horiz-adv-x="1280" 
d="M648 1948q104 4 192 -17t154 -53t116 -116t66 -161.5t22 -148.5t8 -165.5t-6 -199.5t-136 -363l-392 -684q-28 -42 -128 -42h-196q-92 17 -68 85l536 942q48 72 46 246t-16 213t-40 69t-66 40.5t-98 8.5t-104 -20t-82 -56t-50 -130t-6 -189t40 -127t80 -38.5t168 2.5
q68 16 48 -16l-164 -292q-28 -44 -76 -32q-120 20 -180 56t-122 109t-87.5 149.5t-28 125t-4.5 100t4 97t12 93t24 115.5t58 126.5t100 127t162 109t214 36.5z" />
    <glyph glyph-name="colon" unicode=":" horiz-adv-x="1296" 
d="M430 76v168q40 56 100 56h264q48 -28 68 -80v-140q-8 -56 -60 -80h-304q-64 24 -68 76zM434 672v168q40 56 100 56h264q48 -28 68 -80v-140q-8 -56 -60 -80h-304q-64 24 -68 76z" />
    <glyph glyph-name="semicolon" unicode=";" 
d="M-15 2320v127h1437v-239h-1437v112zM-23 -416v127h1446v-239h-1446v112zM634 1340h113h88q124 -25 56 29l-92 46l2 173q-16 46 -86 54h-264q-80 -4 -104 -88l-1 -1014q24 -164 234 -212t522 120q40 -60 -16 -158t-128 -148t-150 -72t-208 -18t-330 76q-120 92 -160 180
t-40 424v812q-5 345 412 368l419 -3q166 9 172 -104l-2 -410l12 -114v-538q-12 -79 -48.5 -102t-104.5 -29h-211h-100q-60 8 -98 35t-46 144v445q90 97 159 104zM872 1100q6 80 -43 73h-105q-38 0 -35 -37v-210q0 -42 91.5 -42t91.5 42v174z" />
    <glyph glyph-name="less" unicode="&#x3c;" horiz-adv-x="544" 
d="M-15 2320v127h567v-239h-567v112zM-23 -416v127h569v-239h-569v112zM54 76v168q40 56 100 56h264q48 -28 68 -80v-140q-8 -56 -60 -80h-304q-64 24 -68 76z" />
    <glyph glyph-name="greater" unicode="&#x3e;" horiz-adv-x="764" 
d="M-15 2320v127h789v-239h-789v112zM-23 -416v127h799v-239h-799v112zM34 808v168q34 68 162 56h427q101 -12 111 -80v-140q-10 -80 -98 -80h-492q-88 8 -110 76z" />
    <glyph glyph-name="question" unicode="?" horiz-adv-x="1204" 
d="M51 1460l-3 309q41 146 205 183h188h392q266 -13 312 -459q8 -250 -208 -492l-192 -201q-68 -45 -56 -116v-188q4 -67 -56 -80h-268q-76 17 -68 80v204q-4 71 64 151l356 400q80 117 74 192t-22 108.5t-46.5 65t-164.5 29.5t-161.5 -23t-31.5 -92v-117q8 -54 -64 -63
h-188q-62 25 -62 109zM277 72v168q40 56 100 56h264q48 -28 68 -80v-140q-8 -56 -60 -80h-304q-64 24 -68 76z" />
    <glyph glyph-name="at" unicode="@" horiz-adv-x="1220" 
d="M634 1340h113h88q124 -25 56 29l-92 46l2 173q-16 46 -86 54h-264q-80 -4 -104 -88l-1 -1014q24 -164 234 -212t522 120q40 -60 -16 -158t-128 -148t-150 -72t-208 -18t-330 76q-120 92 -160 180t-40 424v812q-5 345 412 368l419 -3q166 9 172 -104l-2 -410l12 -114v-538
q-12 -79 -48.5 -102t-104.5 -29h-211h-100q-60 8 -98 35t-46 144v445q90 97 159 104zM872 1100q6 80 -43 73h-105q-38 0 -35 -37v-210q0 -42 91.5 -42t91.5 42v174z" />
    <glyph glyph-name="A" unicode="A" 
d="M520 751q-5 -51 78 -49l197 2q84 -12 52 52q-32 180 -62.5 370.5t-69.5 325.5q-20 60 -52 0q-64 -268 -86 -392t-57 -309zM579 1944h272q80 8 96 -60l133 -636q195 -877 263 -1180l-24 -64l-164 -4l-144 8l-16 68q-56 260 -64 288t-56 32h-376q-48 0 -54 -38t-50 -334
l-64 -24h-207q-68 10 -68 59l71 305l212 1001l107 517q21 70 133 62z" />
    <glyph glyph-name="B" unicode="B" horiz-adv-x="1384" 
d="M421 1612v-340q16 -68 144 -56h208q112 20 150 76t50 118t-22 126t-82 94t-124 30h-212q-124 0 -112 -48zM413 876v-448q16 -60 100 -64h292q148 12 184 66t36 130t-4 116t-20 86t-58 90t-142 84h-276q-72 20 -112 -60zM201 1945h644q184 1 266 -66.5t128 -162.5
t54 -168.5t2 -128t-30 -122.5t-60 -118.5t-108 -89.5q-80 -24 16 -48q96 -48 158 -182.5t62 -236.5t-8 -206.5t-60 -197t-86 -124t-98 -59.5t-352 -32q-336 -6 -608 0q-64 8 -61 69l1 1822q4 60 140 51z" />
    <glyph glyph-name="C" unicode="C" horiz-adv-x="1380" 
d="M355 1954l685 2q166 -54 147 -190v-126v-252q-39 -88 -124 -94l-147 -3q-89 36 -97 108v168q8 61 -36 61h-244q-152 -9 -144 -104v-941q0 -60 6 -92t40 -80t206 -64q116 -4 208 24q96 68 88 285q12 64 99 63h251q39 -19 39 -88q-1 -168 -58 -339q-51 -106 -127 -184.5
t-172 -107.5h-272h-232q-196 17 -292 113q-127 107 -116 205v1322q-8 144 10 182.5t54 62.5t84 44t144 25z" />
    <glyph glyph-name="D" unicode="D" horiz-adv-x="1408" 
d="M568 428q-8 -44 28 -68h272q96 32 108 164v968q16 104 -80 152h-252q-76 24 -76 -60v-1156zM224 1937h740q98 -1 165 -42t125 -109.5t73 -239.5v-1191q-39 -185 -103 -234t-126 -78.5t-158 -42.5h-744q-88 9 -96 92v244q4 43 44 40h48q40 7 32 102v1069q-4 43 -32 71h-56
q-48 7 -36 58v225q20 43 124 36z" />
    <glyph glyph-name="E" unicode="E" horiz-adv-x="1296" 
d="M116 1949h964q124 6 136 -52v-244q-8 -46 -68 -38h-668q-92 4 -77 -53l-3 -252q-4 -42 76 -34h452q84 5 80 -67v-181q-12 -63 -84 -63h-504q-48 -4 -48 -52v-472q4 -74 96 -74h736q56 -8 52 -75v-210q0 -94 -104 -78h-972q-136 -8 -160 44v1828q28 53 96 73z" />
    <glyph glyph-name="F" unicode="F" horiz-adv-x="1348" 
d="M428 1949l800 3q60 -10 68 -68v-215q-4 -60 -48 -64h-805q-47 -13 -35 -64v-503q16 -58 84 -58h576q56 4 72 -47l1 -238q-9 -50 -77 -50h-604q-44 -12 -36 -102v-473q0 -70 -48 -70h-268q-64 20 -52 84v1638q12 69 54 122t72 71.5t98 27t148 6.5z" />
    <glyph glyph-name="G" unicode="G" horiz-adv-x="1372" 
d="M421 1954h315h292q88 -10 166 -68t66 -216v-195q-11 -65 -57 -74l-215 2q-46 -2 -55 36q11 189 -61 218q-200 21 -392 -12q-48 -30 -56 -138v-1055q28 -116 212 -112l172 4q88 45 108 171q24 212 -39 235l-61 2h-184q-76 -8 -84 54v201q4 62 78 74h568q82 -8 106 -70
v-955q-8 -49 -64 -56h-220q-36 31 -28 80l1 88q-25 -29 -43 -52t-76 -67.5t-202 -48.5h-288q-136 11 -200 56.5t-94 99.5t-22 184v1371q64 117 132 175t225 68z" />
    <glyph glyph-name="H" unicode="H" horiz-adv-x="1360" 
d="M116 1952h260q60 8 56 -44v-600q0 -68 60 -64l388 -3q56 -4 56 45v618q0 44 68 48h240q48 -8 52 -70v-1809q0 -72 -60 -73h-260q-43 20 -32 81v732q-8 52 -60 52l-380 3q-52 -3 -72 -44v-752q0 -60 -48 -72h-264q-80 4 -72 49v1847q4 56 68 56z" />
    <glyph glyph-name="I" unicode="I" horiz-adv-x="1132" 
d="M64 312q44 57 148 46h152q36 0 40 44v1161q-4 28 -60 32q-71 -18 -80 39v269q16 49 64 49h492q52 -10 44 -59v-231q-4 -46 -32 -67h-76q-20 -15 -17 -37v-1164q0 -28 37 -32h240q52 -4 52 -63v-231q-12 -61 -68 -68h-876q-48 15 -60 76v236z" />
    <glyph glyph-name="J" unicode="J" horiz-adv-x="1308" 
d="M96 760l260 -3q44 -32 40 -81v-250q4 -52 26 -71t78 -19l217 -2q95 2 127 8.5t44 28t8 100.5v1149q8 36 -60 21h-388q-56 11 -57 74l-3 182q8 56 68 56h644q147 -13 132 -198v-1343q-8 -224 -58 -282t-86 -88t-160 -42l-565 -3q-131 24 -196 58t-115 160v484q8 50 44 61z
" />
    <glyph glyph-name="K" unicode="K" 
d="M112 1944l256 -2q24 -6 16 -50v-660q8 -52 48 12l518 679q19 28 62 21h288q44 -16 -8 -72l-624 -807l620 -998q64 -87 -32 -68h-212q-88 -12 -124 60l-424 700q-20 47 -52 -12l-76 -112v-560q-4 -56 -60 -76h-176q-64 12 -68 76v1813q8 48 48 56z" />
    <glyph glyph-name="L" unicode="L" horiz-adv-x="1388" 
d="M136 1940h168q128 8 136 -36v-1418q-8 -67 32 -75h428q56 -4 40 47v208q-8 54 86 45l202 1q76 8 84 -38v-581q-28 -93 -140 -93h-1056q-48 11 -48 77v1831q0 47 68 32z" />
    <glyph glyph-name="M" unicode="M" horiz-adv-x="1476" 
d="M188 1948l236 -3q32 -20 48 -56l248 -697q28 -65 52 0l260 709q20 44 64 36h188q80 8 100 -32v-1810q8 -111 -60 -93h-212q-60 0 -68 48v1142q0 71 -20 20l-200 -557q-72 -101 -136 0l-220 549q-32 64 -28 -20v-1134q-20 -48 -88 -48h-200q-60 24 -52 101v1814
q16 38 88 31z" />
    <glyph glyph-name="N" unicode="N" horiz-adv-x="1368" 
d="M132 1934h148q52 -4 72 -32l560 -966q32 -16 32 44v918q20 44 60 44h240q52 11 56 -84v-1786q4 -72 -64 -72h-240q-56 -4 -52 56v100q4 68 -8 106l-520 895q-36 44 -36 0v-1089q12 -60 -32 -68h-228q-36 10 -48 48v1826q8 60 60 60z" />
    <glyph glyph-name="O" unicode="O" horiz-adv-x="1344" 
d="M412 1304q-12 -68 -18 -138t-10 -212t4 -234t32 -162t78 -126t186 -58t176 54t66 134t28 178t0 284t-20 260t-44 136t-86 126t-128 74q-92 -4 -170 -122t-94 -194zM684 1956q108 -16 164 -46t126 -90t116 -130t80 -158t52 -178t20 -195.5t6 -301t-14 -298.5t-36 -171.5
t-46 -127t-76 -111t-92 -86.5t-104 -48t-128 -18.5t-152 0t-142 30.5t-118 70.5t-118 141t-98 213.5t-40.5 186.5t-4 199.5t-1.5 266t28 236t52 166t96 155.5t112 134t132 98.5t186 62z" />
    <glyph glyph-name="P" unicode="P" horiz-adv-x="1376" 
d="M556 1532v-512q-16 -68 56 -64h196q92 24 132 82t48 116t6 106t-22 144q-28 76 -72 136q-48 32 -120 40h-172q-56 4 -52 -48zM824 1942q144 9 256 -45q188 -144 220 -519q12 -198 -6 -285t-48 -151.5t-66 -109.5t-108 -79t-162 -65t-202 -27h-80q-60 17 -56 -61v-509
q-4 -75 -64 -91h-228q-76 20 -80 91v1491q12 82 -50 52l-46 1q-24 25 -16 70v188q4 37 52 49h684z" />
    <glyph glyph-name="Q" unicode="Q" horiz-adv-x="1364" 
d="M404 609q0 -101 24 -154t98 -79.5t150 -26.5q40 18 -16 68.5t-112 169.5l-39 97q-45 150 28 169l195 2q60 5 72 -70l72 -162q56 -106 44 47v873q-8 92 -60 113h-376q-57 -41 -80 -104v-943zM353 1948h674q113 -29 161 -97t68 -189v-974q-24 -76 -52 -122.5t-128 -165.5
q-44 -38 -22 -54.5t164 -149.5q74 -147 -14 -193q-576 -30 -632 25l-200 84q-292 65 -300 479v1066q8 136 76 201t205 90z" />
    <glyph glyph-name="R" unicode="R" horiz-adv-x="1372" 
d="M197 1946h496h316q100 -17 140 -61.5t50 -172.5l-1 -414q4 -68 -14 -106.5t-52 -62t-96 -61.5t-215 -109q-31 -17 13 -68l419 -754q40 -51 40.5 -95.5t-92.5 -44.5h-172q-60 8 -88 55l-395 737q-40 39 -28 107v249q-16 89 80 89h175q104 -9 100 93v262q-16 85 -120 76
h-268q-60 13 -48 -72l-3 -1511q-1 -64 -53 -85h-240q-64 12 -60 85v1745q-4 76 22 100.5t94 18.5z" />
    <glyph glyph-name="S" unicode="S" horiz-adv-x="1336" 
d="M142 608h232q56 -8 67 -110l15 -66q17 -37 70.5 -58t157.5 -23t171 26.5t91 104.5q24 134 -92 219q-94 66 -428 267q-116 73 -221 224q-67 145 -73 222t10 152t48 129.5t120 147.5q137 110 448 105q172 -20 332 -95q128 -115 126 -235l-2 -151q12 -69 -48 -73h-196
q-64 20 -76 81l-8 97q-76 73 -248 69q-104 -4 -176 -93q-28 -146 83 -237l581 -408q76 -60 106 -121t34 -182q-4 -162 -44 -288l-36 -68q-44 -65 -120 -134q-136 -89 -364 -109q-196 -4 -242 14t-92 40t-86 52.5t-116 115.5q-76 122 -84 193t-10 101t12 56.5t58 34.5z" />
    <glyph glyph-name="T" unicode="T" horiz-adv-x="1304" 
d="M136 1952h1040q52 -3 64 -57v-245q-14 -54 -60 -66h-304q-66 0 -66 -54l-4 -1463q0 -66 -52 -70h-206q-64 12 -60 70v1459q0 54 -56 58h-296q-56 0 -64 58v253q16 57 64 57z" />
    <glyph glyph-name="U" unicode="U" horiz-adv-x="1336" 
d="M387 1944q52 -21 40 -85v-1237l20 -170l52 -77q88 -34 168 -29.5t144 47t86 110.5t30 204v1174q-12 67 56 63h224q44 -21 53 -96v-1793q-9 -41 -53 -53h-204q-60 12 -56 51v55q8 42 -13 42q-63 -86 -135 -113t-248 -39h-148l-76 25q-64 34 -100 63.5t-66 63.5t-52 91.5
t-30 163.5v1459q-4 72 52 80h256z" />
    <glyph glyph-name="V" unicode="V" horiz-adv-x="1368" 
d="M118 1952h208q52 -8 80 -58l230 -1321q52 -186 100 0l236 1313q10 58 66 66h212q36 -12 48 -75l-386 -1791q-32 -67 -108 -90h-228q-76 18 -116 86l-386 1795q-4 50 44 75z" />
    <glyph glyph-name="W" unicode="W" horiz-adv-x="1308" 
d="M298 1944q56 4 56 -54l84 -1028q16 -193 56 -9l68 290q80 67 168 0l48 -281q24 -198 76 -4l116 1007q-4 67 40 79h188q36 -12 40 -83l-200 -1788q-8 -63 -60 -80h-160q-56 13 -64 76l-84 416q-32 200 -56 0l-84 -420q-20 -55 -72 -72h-160q-48 21 -52 76l-172 1800
q-4 63 52 75h172z" />
    <glyph glyph-name="X" unicode="X" horiz-adv-x="1360" 
d="M322 1948q68 8 76 -41l248 -475q48 -153 96 0l204 466q24 46 88 50h172q44 -16 36 -74l-384 -784q-20 -57 8 -102l420 -912q4 -66 -84 -78h-128q-68 0 -76 62l-280 648q-32 92 -68 0l-292 -652q-20 -54 -76 -58h-136q-68 16 -76 99l428 883q28 49 4 111l-392 787
q-32 54 32 70h180z" />
    <glyph glyph-name="Y" unicode="Y" horiz-adv-x="1308" 
d="M252 1944q60 4 100 -42l240 -885q44 -207 100 4l252 885q36 46 84 42h156q68 -8 36 -71q-272 -961 -316 -1056t-124 -200v-536q-12 -67 -64 -92h-156q-72 29 -72 92v536q-84 105 -120 195.5t-288 1051.5q-24 72 20 76h152z" />
    <glyph glyph-name="Z" unicode="Z" horiz-adv-x="1312" 
d="M259 1952h852q32 -12 52 -69v-315q4 -68 -44 -126l-628 -1016q-68 -85 0 -119h700q62 13 52 -64v-176q-4 -77 -129 -67h-993q-46 37 -46 97v172q-8 115 46 176l674 1119q-20 72 -85 68h-571q-55 9 -73 67v189q9 64 69 64h124z" />
    <glyph glyph-name="bracketleft" unicode="[" 
d="M-15 2320v127h1437v-239h-1437v112zM-23 -416v127h1446v-239h-1446v112zM611 1956q160 -8 238 -39t136 -103.5t80.5 -201t4.5 -246.5t-127 -230q-60 -29 32 -87q136 -129 158.5 -319t-9 -320t-71.5 -190t-80.5 -97t-85 -65t-96.5 -44.5t-188 -16.5t-192 16.5t-94 39
t-66 51.5t-86 106t-82 222t4 306.5t148 314.5q80 37 8 91q-92 108 -116 222t4 240.5t88 203t138 107.5t254 39zM407 1461q7 -49 26 -86.5t47 -60t74 -24.5t92 0t72 24t47.5 57t23.5 81.5t-4 83t-25 69t-55 52t-99 18.5t-101 -19.5t-57 -50t-28.5 -59.5t-12.5 -85zM395 588
q8 -69 28 -123t56 -88.5t80 -47t88 -4t78 45t52 88t24 129t0 118.5t-28 101t-62 96.5t-102 36.5t-106 -45t-64 -96.5t-30 -90.5t-14 -120z" />
    <glyph glyph-name="bracketright" unicode="]" 
d="M-15 2320v127h1437v-239h-1437v112zM-23 -416v127h1446v-239h-1446v112zM648 1948q104 4 192 -17t154 -53t116 -116t66 -161.5t22 -148.5t8 -165.5t-6 -199.5t-136 -363l-392 -684q-28 -42 -128 -42h-196q-92 17 -68 85l536 942q48 72 46 246t-16 213t-40 69t-66 40.5
t-98 8.5t-104 -20t-82 -56t-50 -130t-6 -189t40 -127t80 -38.5t168 2.5q68 16 48 -16l-164 -292q-28 -44 -76 -32q-120 20 -180 56t-122 109t-87.5 149.5t-28 125t-4.5 100t4 97t12 93t24 115.5t58 126.5t100 127t162 109t214 36.5z" />
    <glyph glyph-name="asciicircum" unicode="^" 
d="M-15 2320v127h1437v-239h-1437v112zM-23 -416v127h1446v-239h-1446v112zM140 324h381q64 -4 72 58v1005q-8 66 -40 8l-76 -87q-32 -58 -100 -54h-160q-56 13 -48 87v245q32 41 120 33q52 4 80 46l152 218q36 46 66 50t58 7.5t244 -2.5q52 -1 52 -71v-1485q0 -62 44 -58
h179q72 8 72 -68v-184q0 -80 -92 -72h-1004q-76 -4 -72 72v192q8 64 72 60z" />
    <glyph glyph-name="underscore" unicode="_" horiz-adv-x="1024" 
d="M54 76v168q2 64 122 56h700q100 12 101 -80v-140q-17 -84 -128 -80h-697q-108 0 -98 76z" />
    <glyph glyph-name="a" unicode="a" 
d="M520 751q-5 -51 78 -49l197 2q84 -12 52 52q-32 180 -62.5 370.5t-69.5 325.5q-20 60 -52 0q-64 -268 -86 -392t-57 -309zM579 1944h272q80 8 96 -60l133 -636q195 -877 263 -1180l-24 -64l-164 -4l-144 8l-16 68q-56 260 -64 288t-56 32h-376q-48 0 -54 -38t-50 -334
l-64 -24h-207q-68 10 -68 59l71 305l212 1001l107 517q21 70 133 62zM-15 2320v127h1437v-239h-1437v112zM-23 -416v127h1446v-239h-1446v112z" />
    <glyph glyph-name="b" unicode="b" 
d="M-15 2320v127h1437v-239h-1437v112zM-23 -416v127h1446v-239h-1446v112zM201 1945h644q184 1 266 -66.5t128 -162.5t54 -168.5t2 -128t-30 -122.5t-60 -118.5t-108 -89.5q-80 -24 16 -48q96 -48 158 -182.5t62 -236.5t-8 -206.5t-60 -197t-86 -124t-98 -59.5t-352 -32
q-336 -6 -608 0q-64 8 -61 69l1 1822q4 60 140 51zM421 1612v-340q16 -68 144 -56h208q112 20 150 76t50 118t-22 126t-82 94t-124 30h-212q-124 0 -112 -48zM413 876v-448q16 -60 100 -64h292q148 12 184 66t36 130t-4 116t-20 86t-58 90t-142 84h-276q-72 20 -112 -60z
" />
    <glyph glyph-name="c" unicode="c" 
d="M-15 2320v127h1437v-239h-1437v112zM-23 -416v127h1446v-239h-1446v112zM355 1954l685 2q166 -54 147 -190v-126v-252q-39 -88 -124 -94l-147 -3q-89 36 -97 108v168q8 61 -36 61h-244q-152 -9 -144 -104v-941q0 -60 6 -92t40 -80t206 -64q116 -4 208 24q96 68 88 285
q12 64 99 63h251q39 -19 39 -88q-1 -168 -58 -339q-51 -106 -127 -184.5t-172 -107.5h-272h-232q-196 17 -292 113q-127 107 -116 205v1322q-8 144 10 182.5t54 62.5t84 44t144 25z" />
    <glyph glyph-name="d" unicode="d" 
d="M-15 2320v127h1437v-239h-1437v112zM-23 -416v127h1446v-239h-1446v112zM224 1937h740q98 -1 165 -42t125 -109.5t73 -239.5v-1191q-39 -185 -103 -234t-126 -78.5t-158 -42.5h-744q-88 9 -96 92v244q4 43 44 40h48q40 7 32 102v1069q-4 43 -32 71h-56q-48 7 -36 58v225
q20 43 124 36zM568 428q-8 -44 28 -68h272q96 32 108 164v968q16 104 -80 152h-252q-76 24 -76 -60v-1156z" />
    <glyph glyph-name="e" unicode="e" 
d="M-15 2320v127h1437v-239h-1437v112zM-23 -416v127h1446v-239h-1446v112zM116 1949h964q124 6 136 -52v-244q-8 -46 -68 -38h-668q-92 4 -77 -53l-3 -252q-4 -42 76 -34h452q84 5 80 -67v-181q-12 -63 -84 -63h-504q-48 -4 -48 -52v-472q4 -74 96 -74h736q56 -8 52 -75
v-210q0 -94 -104 -78h-972q-136 -8 -160 44v1828q28 53 96 73z" />
    <glyph glyph-name="f" unicode="f" 
d="M-15 2320v127h1437v-239h-1437v112zM-23 -416v127h1446v-239h-1446v112zM428 1949l800 3q60 -10 68 -68v-215q-4 -60 -48 -64h-805q-47 -13 -35 -64v-503q16 -58 84 -58h576q56 4 72 -47l1 -238q-9 -50 -77 -50h-604q-44 -12 -36 -102v-473q0 -70 -48 -70h-268
q-64 20 -52 84v1638q12 69 54 122t72 71.5t98 27t148 6.5z" />
    <glyph glyph-name="g" unicode="g" 
d="M-15 2320v127h1437v-239h-1437v112zM-23 -416v127h1446v-239h-1446v112zM421 1954h315h292q88 -10 166 -68t66 -216v-195q-11 -65 -57 -74l-215 2q-46 -2 -55 36q11 189 -61 218q-200 21 -392 -12q-48 -30 -56 -138v-1055q28 -116 212 -112l172 4q88 45 108 171
q24 212 -39 235l-61 2h-184q-76 -8 -84 54v201q4 62 78 74h568q82 -8 106 -70v-955q-8 -49 -64 -56h-220q-36 31 -28 80l1 88q-25 -29 -43 -52t-76 -67.5t-202 -48.5h-288q-136 11 -200 56.5t-94 99.5t-22 184v1371q64 117 132 175t225 68z" />
    <glyph glyph-name="h" unicode="h" 
d="M-15 2320v127h1437v-239h-1437v112zM-23 -416v127h1446v-239h-1446v112zM116 1952h260q60 8 56 -44v-600q0 -68 60 -64l388 -3q56 -4 56 45v618q0 44 68 48h240q48 -8 52 -70v-1809q0 -72 -60 -73h-260q-43 20 -32 81v732q-8 52 -60 52l-380 3q-52 -3 -72 -44v-752
q0 -60 -48 -72h-264q-80 4 -72 49v1847q4 56 68 56z" />
    <glyph glyph-name="i" unicode="i" horiz-adv-x="1148" 
d="M-15 2320v127h1176v-239h-1176v112zM-23 -416v127h1189v-239h-1189v112zM64 312q44 57 148 46h152q36 0 40 44v1161q-4 28 -60 32q-71 -18 -80 39v269q16 49 64 49h492q52 -10 44 -59v-231q-4 -46 -32 -67h-76q-20 -15 -17 -37v-1164q0 -28 37 -32h240q52 -4 52 -63v-231
q-12 -61 -68 -68h-876q-48 15 -60 76v236z" />
    <glyph glyph-name="j" unicode="j" 
d="M-15 2320v127h1437v-239h-1437v112zM-23 -416v127h1446v-239h-1446v112zM96 760l260 -3q44 -32 40 -81v-250q4 -52 26 -71t78 -19l217 -2q95 2 127 8.5t44 28t8 100.5v1149q8 36 -60 21h-388q-56 11 -57 74l-3 182q8 56 68 56h644q147 -13 132 -198v-1343
q-8 -224 -58 -282t-86 -88t-160 -42l-565 -3q-131 24 -196 58t-115 160v484q8 50 44 61z" />
    <glyph glyph-name="k" unicode="k" 
d="M-15 2320v127h1437v-239h-1437v112zM-23 -416v127h1446v-239h-1446v112zM112 1944l256 -2q24 -6 16 -50v-660q8 -52 48 12l518 679q19 28 62 21h288q44 -16 -8 -72l-624 -807l620 -998q64 -87 -32 -68h-212q-88 -12 -124 60l-424 700q-20 47 -52 -12l-76 -112v-560
q-4 -56 -60 -76h-176q-64 12 -68 76v1813q8 48 48 56z" />
    <glyph glyph-name="l" unicode="l" 
d="M-15 2320v127h1437v-239h-1437v112zM-23 -416v127h1446v-239h-1446v112zM136 1940h168q128 8 136 -36v-1418q-8 -67 32 -75h428q56 -4 40 47v208q-8 54 86 45l202 1q76 8 84 -38v-581q-28 -93 -140 -93h-1056q-48 11 -48 77v1831q0 47 68 32z" />
    <glyph glyph-name="m" unicode="m" 
d="M-15 2320v127h1437v-239h-1437v112zM-23 -416v127h1446v-239h-1446v112zM152 1944l236 -3q32 -20 48 -56l248 -697q28 -65 52 0l260 709q20 44 64 36h188q80 8 100 -32v-1810q8 -111 -60 -93h-212q-60 0 -68 48v1142q0 71 -20 20l-200 -557q-72 -101 -136 0l-220 549
q-32 64 -28 -20v-1134q-20 -48 -88 -48h-200q-60 24 -52 101v1814q16 38 88 31z" />
    <glyph glyph-name="n" unicode="n" 
d="M-15 2320v127h1437v-239h-1437v112zM-23 -416v127h1446v-239h-1446v112zM132 1934h148q52 -4 72 -32l560 -966q32 -16 32 44v918q20 44 60 44h240q52 11 56 -84v-1786q4 -72 -64 -72h-240q-56 -4 -52 56v100q4 68 -8 106l-520 895q-36 44 -36 0v-1089q12 -60 -32 -68
h-228q-36 10 -48 48v1826q8 60 60 60z" />
    <glyph glyph-name="o" unicode="o" 
d="M-15 2320v127h1437v-239h-1437v112zM-23 -416v127h1446v-239h-1446v112zM684 1956q108 -16 164 -46t126 -90t116 -130t80 -158t52 -178t20 -195.5t6 -301t-14 -298.5t-36 -171.5t-46 -127t-76 -111t-92 -86.5t-104 -48t-128 -18.5t-152 0t-142 30.5t-118 70.5t-118 141
t-98 213.5t-40.5 186.5t-4 199.5t-1.5 266t28 236t52 166t96 155.5t112 134t132 98.5t186 62zM412 1304q-12 -68 -18 -138t-10 -212t4 -234t32 -162t78 -126t186 -58t176 54t66 134t28 178t0 284t-20 260t-44 136t-86 126t-128 74q-92 -4 -170 -122t-94 -194z" />
    <glyph glyph-name="p" unicode="p" 
d="M-15 2320v127h1437v-239h-1437v112zM-23 -416v127h1446v-239h-1446v112zM824 1942q144 9 256 -45q188 -144 220 -519q12 -198 -6 -285t-48 -151.5t-66 -109.5t-106 -84.5t-162 -65t-204 -21.5h-80q-60 17 -56 -61v-509q-4 -75 -64 -91h-228q-76 20 -80 91v1491
q12 82 -50 52l-46 1q-24 25 -16 70v188q4 37 52 49h684zM556 1532v-512q-16 -68 56 -64h196q92 24 132 82t48 116t6 106t-22 144q-28 76 -72 136q-48 32 -120 40h-172q-56 4 -52 -48z" />
    <glyph glyph-name="q" unicode="q" 
d="M-15 2320v127h1437v-239h-1437v112zM-23 -416v127h1446v-239h-1446v112zM353 1948h674q113 -29 161 -97t68 -189v-974q-24 -76 -52 -122.5t-128 -165.5q-44 -38 -22 -54.5t164 -149.5q74 -147 -14 -193q-576 -30 -632 25l-200 84q-292 65 -300 479v1066q8 136 76 201
t205 90zM404 609q0 -101 24 -154t98 -79.5t150 -26.5q40 18 -16 68.5t-112 169.5l-39 97q-45 150 28 169l195 2q60 5 72 -70l72 -162q56 -106 44 47v873q-8 92 -60 113h-376q-57 -41 -80 -104v-943z" />
    <glyph glyph-name="r" unicode="r" 
d="M-15 2320v127h1437v-239h-1437v112zM-23 -416v127h1446v-239h-1446v112zM197 1946h496h316q100 -17 140 -61.5t50 -172.5l-1 -414q4 -68 -14 -106.5t-52 -62t-96 -61.5t-215 -109q-31 -17 13 -68l419 -754q40 -51 40.5 -95.5t-92.5 -44.5h-172q-60 8 -88 55l-395 737
q-40 39 -28 107v249q-16 89 80 89h175q104 -9 100 93v262q-16 85 -120 76h-268q-60 13 -53 -65l2 -1518q-1 -64 -53 -85h-240q-64 12 -60 85v1745q-4 76 22 100.5t94 18.5z" />
    <glyph glyph-name="s" unicode="s" 
d="M-15 2320v127h1437v-239h-1437v112zM-23 -416v127h1446v-239h-1446v112zM142 608h232q56 -8 67 -110l15 -66q17 -37 70.5 -58t157.5 -23t171 26.5t91 104.5q24 134 -92 219q-94 66 -428 267q-116 73 -221 224q-67 145 -73 222t10 152t48 129.5t120 147.5q137 110 448 105
q172 -20 332 -95q128 -115 126 -235l-2 -151q12 -69 -48 -73h-196q-64 20 -76 81l-8 97q-76 73 -248 69q-104 -4 -176 -93q-28 -146 83 -237l581 -408q76 -60 106 -121t34 -182q-4 -162 -44 -288l-36 -68q-44 -65 -120 -134q-136 -89 -364 -109q-196 -4 -242 14t-92 40
t-86 52.5t-116 115.5q-76 122 -84 193t-10 101t12 56.5t58 34.5z" />
    <glyph glyph-name="t" unicode="t" 
d="M-15 2320v127h1437v-239h-1437v112zM-23 -416v127h1446v-239h-1446v112zM136 1952h1040q52 -3 64 -57v-245q-14 -54 -60 -66h-304q-66 0 -66 -54l-2 -1462q-2 -67 -54 -71h-206q-64 12 -60 70v1459q0 54 -56 58h-296q-56 0 -64 58v253q16 57 64 57z" />
    <glyph glyph-name="u" unicode="u" 
d="M-15 2320v127h1437v-239h-1437v112zM-23 -416v127h1446v-239h-1446v112zM387 1944q52 -21 40 -85v-1237l20 -170l52 -77q88 -34 168 -29.5t144 47t86 110.5t30 204v1174q-12 67 56 63h224q44 -21 48 -85l5 -1804q-9 -41 -53 -53h-204q-60 12 -56 51v55q8 42 -13 42
q-63 -86 -135 -113t-248 -39h-148l-76 25q-64 34 -100 63.5t-66 63.5t-52 91.5t-30 163.5v1459q-4 72 52 80h256z" />
    <glyph glyph-name="v" unicode="v" 
d="M-15 2320v127h1437v-239h-1437v112zM-23 -416v127h1446v-239h-1446v112zM118 1952h208q52 -8 80 -58l230 -1321q52 -186 100 0l236 1313q10 58 66 66h212q36 -12 48 -75l-386 -1791q-32 -67 -108 -90h-228q-76 18 -116 86l-386 1795q-4 50 44 75z" />
    <glyph glyph-name="w" unicode="w" 
d="M-15 2320v127h1437v-239h-1437v112zM-23 -416v127h1446v-239h-1446v112zM298 1944q56 4 56 -54l84 -1028q16 -193 56 -9l68 290q80 67 168 0l48 -281q24 -198 76 -4l116 1007q-4 67 40 79h188q36 -12 40 -83l-200 -1788q-8 -63 -60 -80h-160q-56 13 -64 76l-84 416
q-32 200 -56 0l-84 -420q-20 -55 -72 -72h-160q-48 21 -52 76l-172 1800q-4 63 52 75h172z" />
    <glyph glyph-name="x" unicode="x" 
d="M-15 2320v127h1437v-239h-1437v112zM-23 -416v127h1446v-239h-1446v112zM322 1948q68 8 76 -41l248 -475q48 -153 96 0l204 466q24 46 88 50h172q44 -16 36 -74l-384 -784q-20 -57 8 -102l420 -912q4 -66 -84 -78h-128q-68 0 -76 62l-280 648q-32 92 -68 0l-292 -652
q-20 -54 -76 -58h-136q-68 16 -76 99l428 883q28 49 4 111l-392 787q-32 54 32 70h180z" />
    <glyph glyph-name="y" unicode="y" 
d="M-15 2320v127h1437v-239h-1437v112zM-23 -416v127h1446v-239h-1446v112zM252 1944q60 4 100 -42l240 -885q44 -207 100 4l252 885q36 46 84 42h156q68 -8 36 -71q-272 -961 -316 -1056t-124 -200v-536q-12 -67 -64 -92h-156q-72 29 -72 92v536q-84 105 -120 195.5
t-288 1051.5q-24 72 20 76h152z" />
    <glyph glyph-name="z" unicode="z" 
d="M-15 2320v127h1437v-239h-1437v112zM-23 -416v127h1446v-239h-1446v112zM259 1952h852q32 -12 52 -69v-315q4 -68 -44 -126l-628 -1016q-68 -85 0 -119h700q62 13 52 -64v-176q-4 -77 -129 -67h-993q-46 37 -46 97v172q-8 115 46 176l674 1119q-20 72 -85 68h-571
q-55 9 -73 67v189q9 64 69 64h124z" />
    <glyph glyph-name="braceright" unicode="}" horiz-adv-x="1028" 
d="M-15 2320v127h1048v-239h-1048v112zM-23 -416v127h1053v-239h-1053v112zM54 76v168q2 64 122 56h700q100 12 101 -80v-140q-17 -84 -128 -80h-697q-108 0 -98 76z" />
    <glyph glyph-name="asciitilde" unicode="~" horiz-adv-x="1204" 
d="M-15 2320v127h1220v-239h-1220v112zM-23 -416v127h1229v-239h-1229v112zM51 1460l-3 309q41 146 205 183h188h392q266 -13 312 -459q8 -250 -208 -492l-192 -201q-68 -45 -56 -116v-188q4 -67 -56 -80h-268q-76 17 -68 80v204q-4 71 64 151l356 400q80 117 74 192
t-22 108.5t-46.5 65t-164.5 29.5t-161.5 -23t-31.5 -92v-117q8 -54 -64 -63h-188q-62 25 -62 109zM277 72v168q40 56 100 56h264q48 -28 68 -80v-140q-8 -56 -60 -80h-304q-64 24 -68 76z" />
    <glyph glyph-name="uni00A0" unicode="&#xa0;" horiz-adv-x="912" 
d="M-15 2320v127h938v-239h-938v112zM-23 -416v127h948v-239h-948v112z" />
    <glyph glyph-name="uni00A0" unicode="&#xb5;" horiz-adv-x="912" 
d="M-15 2320v127h938v-239h-938v112zM-23 -416v127h948v-239h-948v112z" />
    <glyph glyph-name="brokenbar" unicode="&#xa6;" horiz-adv-x="632" 
d="M-15 2320v127h660v-239h-660v112zM-23 -416v127h665v-239h-665v112zM110 92v168q40 56 100 56h264q48 -28 68 -80v-140q-8 -56 -60 -80h-304q-64 24 -68 76zM114 660v168q40 56 100 56h264q48 -28 68 -80v-140q-8 -56 -60 -80h-304q-64 24 -68 76z" />
    <glyph glyph-name="brokenbar" unicode="&#xb2;" horiz-adv-x="632" 
d="M-15 2320v127h660v-239h-660v112zM-23 -416v127h665v-239h-665v112zM110 92v168q40 56 100 56h264q48 -28 68 -80v-140q-8 -56 -60 -80h-304q-64 24 -68 76zM114 660v168q40 56 100 56h264q48 -28 68 -80v-140q-8 -56 -60 -80h-304q-64 24 -68 76z" />
    <glyph glyph-name="section" unicode="&#xa7;" 
d="M-15 2320v127h1437v-239h-1437v112zM-23 -416v127h1446v-239h-1446v112zM159 641h180q68 3 68 -53v-143q52 -222 360 -152q144 74 176 168t32 186t-26 150t-86 95t-248 29q-144 -17 -180 45l-4 147q12 45 84 99l364 372q24 62 -44 58h-604q-48 12 -64 81v178q-8 49 56 51
h900q76 0 96 -55v-354q-8 -62 -48 -89l-204 -210q-108 -98 -20 -94q144 -41 240 -140q94 -144 84 -250v-230q-16 -143 -42 -204.5t-50 -104.5t-82 -98.5t-286 -124.5l-383 2q-180 40 -250.5 135.5t-90.5 264.5v167q-8 78 72 74z" />
    <glyph glyph-name="degree" unicode="&#xb0;" 
d="M-15 2320v127h1437v-239h-1437v112zM-23 -416v127h1446v-239h-1446v112zM218 1948h692q145 -6 172 -104q16 -118 -28 -164l-178 -190q-70 -37 -66 42v93q-16 46 -84 46h-256q-68 -8 -56 -84v-1144q-4 -71 182 -69t182 74l-2 800q4 48 52 76l156 168l120 140q50 6 46 -104
v-1177q-24 -215 -100 -276.5t-216 -78.5h-344h-204q-96 17 -150 78.5t-50 250.5v1325q-12 278 132 298z" />
    <glyph glyph-name="degree" unicode="&#xba;" 
d="M-15 2320v127h1437v-239h-1437v112zM-23 -416v127h1446v-239h-1446v112zM218 1948h692q145 -6 172 -104q16 -118 -28 -164l-178 -190q-70 -37 -66 42v93q-16 46 -84 46h-256q-68 -8 -56 -84v-1144q-4 -71 182 -69t182 74l-2 800q4 48 52 76l156 168l120 140q50 6 46 -104
v-1177q-24 -215 -100 -276.5t-216 -78.5h-344h-204q-96 17 -150 78.5t-50 250.5v1325q-12 278 132 298z" />
    <glyph glyph-name="Adieresis" unicode="&#xc4;" horiz-adv-x="1344" 
d="M220 1944h300q96 8 88 -96v-124q8 -69 -88 -80h-312q-108 -4 -104 72v152q-12 80 116 76zM560 596h48h172q80 -12 72 36l-120 536q-28 84 -64 0l-140 -524q-16 -44 32 -48zM589 1570l271 2q88 -24 119 -138l309 -1366q4 -76 -64 -68h-184q-60 -4 -72 52l-40 216
q-16 44 -68 44h-352q-64 0 -80 -48l-64 -224q-24 -36 -84 -40h-176q-60 16 -44 80l363 1363q39 117 166 127zM1200 1952q96 -12 98 -115l-2 -125q4 -60 -96 -60h-328q-92 8 -100 76v124q-8 100 96 100h332z" />
    <glyph glyph-name="Adieresis" unicode="&#xc5;" horiz-adv-x="1344" 
d="M220 1944h300q96 8 88 -96v-124q8 -69 -88 -80h-312q-108 -4 -104 72v152q-12 80 116 76zM560 596h48h172q80 -12 72 36l-120 536q-28 84 -64 0l-140 -524q-16 -44 32 -48zM589 1570l271 2q88 -24 119 -138l309 -1366q4 -76 -64 -68h-184q-60 -4 -72 52l-40 216
q-16 44 -68 44h-352q-64 0 -80 -48l-64 -224q-24 -36 -84 -40h-176q-60 16 -44 80l363 1363q39 117 166 127zM1200 1952q96 -12 98 -115l-2 -125q4 -60 -96 -60h-328q-92 8 -100 76v124q-8 100 96 100h332z" />
    <glyph glyph-name="Odieresis" unicode="&#xd6;" horiz-adv-x="1372" 
d="M868 1948h328q44 -4 68 -44v-200q-20 -52 -68 -72h-328q-52 12 -68 68v204q12 48 68 44zM468 1064q-32 -72 -48 -158t-20 -210t20 -192t78 -108t126 -44t140 2t110 44t66 96t30 182t-10 222t-28 132t-32 72t-50 66t-86 44t-116 2t-102 -54t-78 -96zM680 1528
q64 -4 102 -8t62 -12t54 -20t80 -42t99 -75.5t76.5 -95.5t49 -90.5t36 -86.5t24 -144t14 -214t-2 -198t-34.5 -186t-80 -180t-142 -120t-212 -56t-236 -2t-206 52t-144 96t-80 112t-48 168t-16 238t12 200t28 148t56 160t96 156t126 114t132 64t154 22zM156 1944h328
q44 -4 68 -44v-200q-20 -52 -68 -72h-328q-52 12 -68 68v204q12 48 68 44z" />
    <glyph glyph-name="Udieresis" unicode="&#xdc;" horiz-adv-x="1380" 
d="M155 1537l178 3q56 -8 72 -62v-915q-15 -100 60 -184q96 -62 236 -45q84 12 144 50q136 83 120 353v728q0 67 76 71h204q61 -27 56 -79v-1373q0 -75 -72 -83h-192q-76 -4 -72 46v95q-4 34 -31 10q-91 -123 -226 -142q-109 -19 -318 10q-281 132 -313 422v1057
q23 47 78 38zM905 1948h328q44 -4 68 -44v-200q-20 -52 -68 -72h-328q-52 12 -68 68v204q12 48 68 44zM141 1952h328q44 -4 68 -44v-200q-20 -52 -68 -72h-328q-52 12 -68 68v204q12 48 68 44z" />
    <glyph glyph-name="adieresis" unicode="&#xe4;" horiz-adv-x="1344" 
d="M220 1944h300q96 8 88 -96v-124q8 -69 -88 -80h-312q-108 -4 -104 72v152q-12 80 116 76zM560 596h48h172q80 -12 72 36l-120 536q-28 84 -64 0l-140 -524q-16 -44 32 -48zM589 1570l271 2q88 -24 119 -138l309 -1366q4 -76 -64 -68h-184q-60 -4 -72 52l-40 216
q-16 44 -68 44h-352q-64 0 -80 -48l-64 -224q-24 -36 -84 -40h-176q-60 16 -44 80l363 1363q39 117 166 127zM1200 1952q96 -12 98 -115l-2 -125q4 -60 -96 -60h-328q-92 8 -100 76v124q-8 100 96 100h332zM-15 2320v127h1367v-239h-1367v112zM-23 -416v127h1446v-239h-1446
v112z" />
    <glyph glyph-name="odieresis" unicode="&#xf6;" 
d="M-15 2320v127h1437v-239h-1437v112zM-23 -416v127h1446v-239h-1446v112zM156 1944h328q44 -4 68 -44v-200q-20 -52 -68 -72h-328q-52 12 -68 68v204q12 48 68 44zM868 1948h328q44 -4 68 -44v-200q-20 -52 -68 -72h-328q-52 12 -68 68v204q12 48 68 44zM468 1064
q-32 -72 -48 -158t-20 -210t20 -192t78 -108t126 -44t140 2t110 44t66 96t30 182t-10 222t-26 136t-32 72t-52 62t-86 44t-116 2t-102 -54t-78 -96zM680 1528q64 -4 102 -8t62 -12t54 -20t80 -42t99 -75.5t76.5 -95.5t49 -90.5t36 -86.5t24 -144t14 -214t-2 -198t-34.5 -186
t-80 -180t-142 -120t-212 -56t-236 -2t-206 52t-144 96t-80 112t-48 168t-16 238t12 200t28 148t56 160t96 156t126 114t132 64t154 22z" />
    <glyph glyph-name="udieresis" unicode="&#xfc;" 
d="M-15 2320v127h1437v-239h-1437v112zM-23 -416v127h1446v-239h-1446v112zM141 1952h328q44 -4 68 -44v-200q-20 -52 -68 -72h-328q-52 12 -68 68v204q12 48 68 44zM905 1948h328q44 -4 68 -44v-200q-20 -52 -68 -72h-328q-52 12 -68 68v204q12 48 68 44zM155 1537l178 3
q56 -8 72 -62v-915q-15 -100 60 -184q96 -62 236 -45q84 12 144 50q136 83 120 353v728q0 67 76 71h204q61 -27 56 -79v-1373q0 -75 -72 -83h-192q-76 -4 -72 46v95q-4 34 -31 10q-91 -123 -226 -142q-109 -19 -318 10q-281 132 -313 422v1057q23 47 78 38z" />
    <glyph glyph-name="glyph51" horiz-adv-x="2048" 
d="M552 -416v127h456v-239h-456v112zM560 2320v127h456v-239h-456v112z" />
    <glyph glyph-name="glyph53" horiz-adv-x="1080" 
d="M771 40v1824q13 612 -321 583l-450 -3v-236l435 3q101 1 99 -345v-1826q16 -342 -99 -334l-435 2v-240l466 -1q326 -7 305 573z" />
  </font>
</defs>
</svg>
